<?xml version="1.0" standalone="no"?>
<!DOCTYPE svg PUBLIC "-//W3C//DTD SVG 20010904//EN"
 "http://www.w3.org/TR/2001/REC-SVG-20010904/DTD/svg10.dtd">
<svg version="1.0" xmlns="http://www.w3.org/2000/svg"
 width="1024.000000pt" height="1024.000000pt" viewBox="0 0 1024.000000 1024.000000"
 preserveAspectRatio="xMidYMid meet">
<metadata>
Created by potrace 1.11, written by Peter Selinger 2001-2013
</metadata>
<g transform="translate(0.000000,1024.000000) scale(0.100000,-0.100000)"
fill="#000000" stroke="none">
<path d="M0 5120 l0 -5120 5120 0 5120 0 0 5120 0 5120 -5120 0 -5120 0 0
-5120z m8190 2030 c47 -6 121 -18 165 -26 291 -58 615 -226 822 -429 l93 -90
0 -363 0 -362 -187 2 -188 3 -50 277 c-57 317 -50 302 -187 394 -246 165 -563
220 -910 159 -231 -40 -444 -156 -603 -327 -196 -210 -328 -502 -392 -863 -22
-128 -26 -651 -5 -785 47 -300 136 -545 274 -751 223 -334 535 -499 944 -499
132 0 301 24 419 60 150 47 394 188 409 238 3 9 25 134 51 277 25 143 47 266
50 273 3 9 50 12 190 12 l185 0 0 -361 0 -361 -62 -65 c-155 -161 -405 -319
-639 -401 -344 -121 -812 -124 -1164 -7 -349 115 -665 368 -883 705 -155 239
-257 516 -309 842 -26 163 -26 663 0 828 42 268 97 443 207 665 275 553 736
889 1310 954 108 12 362 13 460 1z m-5443 -1660 c349 -888 636 -1616 638
-1619 3 -2 7 -2 10 1 3 3 284 718 625 1589 341 871 627 1599 635 1617 l15 32
565 0 565 0 0 -175 c0 -96 -1 -175 -2 -175 -2 0 -100 -18 -218 -38 l-215 -38
-3 -1570 -2 -1570 197 -33 c109 -18 208 -35 221 -38 22 -5 22 -7 22 -179 l0
-174 -712 2 -713 3 -3 173 c-1 94 1 172 5 173 5 0 105 17 223 37 l215 37 6
785 c4 479 15 1017 28 1379 11 327 19 597 16 599 -3 3 -7 3 -9 1 -2 -2 -291
-715 -642 -1584 -350 -869 -641 -1586 -647 -1592 -14 -18 -353 -18 -360 0
-310 773 -1281 3165 -1287 3171 -13 13 -13 11 11 -634 14 -353 24 -841 28
-1340 l6 -785 215 -37 c118 -20 218 -37 223 -37 4 -1 6 -79 5 -173 l-3 -173
-712 -3 -713 -2 0 174 c0 172 0 174 23 179 12 3 111 20 220 38 l197 33 -2
1570 -3 1570 -215 38 c-118 20 -216 38 -217 38 -2 0 -3 79 -3 175 l0 175 567
-2 566 -3 634 -1615z"/>
</g>
</svg>
